<svg width="32" height="32" viewBox="0 0 32 32" fill="none" xmlns="http://www.w3.org/2000/svg">
  <defs>
    <linearGradient id="goldGradient" x1="0%" y1="0%" x2="100%" y2="100%">
      <stop offset="0%" style="stop-color:#C4A572;stop-opacity:1" />
      <stop offset="50%" style="stop-color:#D4B886;stop-opacity:1" />
      <stop offset="100%" style="stop-color:#E6D0A3;stop-opacity:1" />
    </linearGradient>
    <filter id="shadow" x="-20%" y="-20%" width="140%" height="140%">
      <feDropShadow dx="1" dy="1" stdDeviation="1" flood-color="#000000" flood-opacity="0.3"/>
    </filter>
  </defs>
  
  <!-- Background circle -->
  <circle cx="16" cy="16" r="15" fill="#1a1a1a" stroke="url(#goldGradient)" stroke-width="2"/>
  
  <!-- Letter M -->
  <path d="M6 24V8h3l3 8 3-8h3v16h-2.5V12.5L13 20h-1.5L9 12.5V24H6z" fill="url(#goldGradient)" filter="url(#shadow)"/>
  
  <!-- Letter P -->
  <path d="M18 24V8h5c2.5 0 4 1.5 4 3.5s-1.5 3.5-4 3.5h-2.5V24H18zm2.5-8.5H23c1 0 1.5-0.5 1.5-1.5s-0.5-1.5-1.5-1.5h-2.5v3z" fill="url(#goldGradient)" filter="url(#shadow)"/>
</svg>